Official new music video from Attila.            Seed and Enjoy!!


Video
Format                                   : AVC
Format/Info                              : Advanced Video Codec
Format profile                           : Main@L3.2
Format settings, CABAC                   : No
Format settings, ReFrames                : 2 frames
Codec ID                                 : 7
Duration                                 : 3mn 31s
Bit rate                                 : 500 Kbps
Width                                    : 512 pixels
Height                                   : 176 pixels
Display aspect ratio                     : 2.909
Frame rate mode                          : Constant
Frame rate                               : 30.000 fps
Color space                              : YUV
Chroma subsampling                       : 4:2:0
Bit depth                                : 8 bits
Scan type                                : Progressive
Bits/(Pixel*Frame)                       : 0.185
Stream size                              : 12.6 MiB (88%)
Writing library                          : x264 core 112

Audio
Format                                   : AAC
Format/Info                              : Advanced Audio Codec
Format profile                           : LC
Codec ID                                 : 10
Duration                                 : 3mn 31s
Bit rate                                 : 64.0 Kbps
Channel(s)                               : 2 channels
Channel positions                        : Front: L R
Sampling rate                            : 32.0 KHz
Compression mode                         : Lossy
Stream size                              : 1.62 MiB (11%)
